<svg fill="none" height="148" viewBox="0 0 148 148" width="148" xmlns="http://www.w3.org/2000/svg"><g fill="#d6bbfb"><path clip-rule="evenodd" d="m74 148c40.869 0 74-33.131 74-74 0-40.8691-33.131-74-74-74-40.8691 0-74 33.1309-74 74 0 40.869 33.1309 74 74 74zm0-37c20.4345 0 37-16.5655 37-37s-16.5655-37-37-37c-20.4346 0-37 16.5655-37 37s16.5654 37 37 37z" fill-rule="evenodd"/><path d="m39.7073 60.0811c-1.7457 4.2967-2.7073 8.9955-2.7073 13.9189s.9616 9.6222 2.7073 13.9188z"/><path d="m46.9268 99.2201c-1.3171-1.4133-2.5248-2.9297-3.6098-4.536v-41.3682c1.085-1.6063 2.2927-3.1228 3.6098-4.536z"/><path d="m54.1463 105.228c-1.2569-.801-2.4622-1.676-3.6098-2.618v-57.2203c1.1476-.9422 2.3529-1.8168 3.6098-2.6175z"/><path d="m61.3658 108.787c-1.2352-.449-2.4398-.962-3.6097-1.534v-66.5059c1.1699-.5725 2.3745-1.0852 3.6097-1.5339z"/><path d="m68.5853 110.607c-1.2237-.18-2.428-.419-3.6097-.715v-71.7836c1.1817-.2962 2.386-.5356 3.6097-.715z"/><path d="m75.8048 110.957c-.598.028-1.1997.043-1.8048.043-.6052 0-1.2069-.015-1.8049-.043v-73.9138c.598-.0287 1.1997-.0432 1.8049-.0432.6051 0 1.2068.0145 1.8048.0432z"/><path d="m83.0244 109.892c-1.1818.296-2.3861.535-3.6098.715v-73.2136c1.2237.1794 2.428.4188 3.6098.7149z"/><path d="m90.2439 107.253c-1.1699.572-2.3745 1.085-3.6098 1.534v-69.5738c1.2353.4487 2.4399.9613 3.6098 1.5339z"/><path d="m97.4634 102.61c-1.1476.943-2.3529 1.817-3.6098 2.618v-62.4559c1.2569.8008 2.4622 1.6754 3.6098 2.6176z"/><path d="m104.683 94.6842c-1.085 1.6062-2.293 3.1227-3.61 4.5359v-50.4402c1.317 1.4132 2.525 2.9297 3.61 4.5359z"/><path d="m108.293 60.081c1.745 4.2967 2.707 8.9955 2.707 13.919 0 4.9234-.962 9.6223-2.707 13.9189z"/></g></svg>