<svg fill="none" height="296" viewBox="0 0 148 296" width="148" xmlns="http://www.w3.org/2000/svg"><g fill="#7f56d9"><path clip-rule="evenodd" d="m0 0c81.7381 0 148 66.2618 148 148v148c-81.7382 0-148-66.262-148-148zm118.4 148c0-55.17-37.7334-101.5265-88.8001-114.6702v114.6702c0 55.169 37.7333 101.526 88.8001 114.67z" fill-rule="evenodd"/><path d="m58.4296 44.9979c-2.2436-1.2754-4.533-2.4797-6.865-3.6097h-21.9649v3.6097z"/><path d="m69.6149 52.2175c-1.7152-1.2488-3.4652-2.4526-5.2484-3.6098h-34.7668v3.6098z"/><path d="m78.584 59.437c-1.3919-1.236-2.8131-2.4396-4.2625-3.6098h-44.7218v3.6098z"/><path d="m86.034 66.6565c-1.1619-1.2284-2.3498-2.432-3.5628-3.6098h-52.8715v3.6098z"/><path d="m92.3318 73.876c-.9834-1.2235-1.9907-2.4269-3.021-3.6098h-59.7111v3.6098z"/><path d="m97.6983 81.0955c-.837-1.2199-1.6962-2.4234-2.5772-3.6097l-65.5214-.0001v3.6098z"/><path d="m102.278 88.315c-.712-1.2173-1.445-2.4207-2.199-3.6097h-70.4793v3.6097z"/><path d="m106.17 95.5345c-.601-1.2152-1.223-2.4186-1.865-3.6097h-74.7053v3.6097z"/><path d="m109.447 102.754c-.502-1.214-1.024-2.417-1.565-3.6097h-78.2823v3.6097z"/><path d="m112.161 109.974c-.411-1.213-.841-2.416-1.289-3.61h-81.2723v3.61z"/><path d="m114.352 117.193c-.325-1.211-.669-2.414-1.032-3.61h-83.7203v3.61z"/><path d="m116.05 124.413c-.251-1.241-.521-2.474-.81-3.7h-85.6403v3.7z"/><path d="m117.265 131.542c-.168-1.209-.355-2.413-.559-3.61h-87.1063v3.61z"/><path d="m118.045 138.761c-.094-1.208-.205-2.411-.334-3.609h-88.1113v3.609z"/><path d="m118.383 145.981c-.02-1.208-.059-2.411-.115-3.61h-88.6683v3.61z"/><path d="m118.4 153.2v-3.609h-88.7899c.0159 1.207.0499 2.411.1017 3.609z"/><path d="m118.4 160.42v-3.61h-88.4775c.0889 1.209.1959 2.412.3208 3.61z"/><path d="m118.4 167.639v-3.609h-87.7244c.1636 1.209.3456 2.412.5454 3.609z"/><path d="m118.4 174.859v-3.61h-86.5185c.2409 1.21.5003 2.414.7778 3.61z"/><path d="m118.4 182.078v-3.609h-84.843c.3215 1.211.6618 2.414 1.0205 3.609z"/><path d="m118.4 189.298v-3.61h-82.6757c.4067 1.212.8325 2.416 1.277 3.61z"/><path d="m118.4 196.517v-3.609h-79.9869c.4978 1.213 1.0152 2.417 1.5517 3.609z"/><path d="m118.4 203.737v-3.61h-76.7375c.5968 1.215 1.2138 2.419 1.8506 3.61z"/><path d="m118.4 210.956v-3.609h-72.8754c.7064 1.217 1.4339 2.42 2.182 3.609z"/><path d="m118.4 218.176v-3.61h-68.3299c.8307 1.22 1.6836 2.423 2.5582 3.61z"/><path d="m118.4 225.396v-3.61h-63.003c.976 1.223 1.9757 2.427 2.9984 3.61z"/><path d="m118.4 232.615v-3.61h-56.7529c1.1526 1.228 2.331 2.432 3.5345 3.61z"/><path d="m118.4 239.835v-3.61h-49.3635c1.3795 1.235 2.7882 2.439 4.2248 3.61z"/><path d="m118.4 247.054v-3.61h-40.4772c1.6969 1.248 3.4283 2.452 5.1924 3.61z"/><path d="m118.4 254.274v-3.61h-29.4205c2.2106 1.273 4.4663 2.478 6.7639 3.61z"/><path d="m118.4 261.493v-3.61h-14.577c3.371 1.357 6.819 2.563 10.336 3.61z"/><path d="m29.5997 37.7784h13.728c-3.4708-1.3654-7.0216-2.5717-10.6435-3.6097h-3.0845z"/></g></svg>