<svg fill="none" height="296" viewBox="0 0 148 296" width="148" xmlns="http://www.w3.org/2000/svg"><g fill="#9e77ed"><path clip-rule="evenodd" d="m148 0c-81.7382 0-148 66.2618-148 148v148c81.7381 0 148-66.262 148-148zm-118.4 148c0-55.17 37.7333-101.5265 88.8-114.6702v114.6702c0 55.169-37.7333 101.526-88.8 114.67z" fill-rule="evenodd"/><path d="m89.5704 44.9979c2.2435-1.2754 4.5329-2.4797 6.8649-3.6097h21.9647v3.6097z"/><path d="m78.385 52.2175c1.7152-1.2488 3.4653-2.4526 5.2484-3.6098h34.7666v3.6098z"/><path d="m69.4159 59.437c1.3919-1.236 2.8131-2.4396 4.2625-3.6098h44.7216v3.6098z"/><path d="m61.966 66.6565c1.1618-1.2284 2.3497-2.432 3.5627-3.6098h52.8713v3.6098z"/><path d="m55.6681 73.876c.9834-1.2235 1.9907-2.4269 3.0211-3.6098h59.7108v3.6098z"/><path d="m50.3016 81.0955c.837-1.2199 1.6962-2.4234 2.5772-3.6097l65.5212-.0001v3.6098z"/><path d="m45.722 88.315c.7119-1.2173 1.4449-2.4207 2.1985-3.6097h70.4795v3.6097z"/><path d="m41.8297 95.5345c.6016-1.2152 1.2235-2.4186 1.8652-3.6097h74.7051v3.6097z"/><path d="m38.5529 102.754c.5022-1.214 1.024-2.417 1.5651-3.6097h78.282v3.6097z"/><path d="m35.8388 109.974c.4108-1.213.8408-2.416 1.2894-3.61h81.2718v3.61z"/><path d="m33.6478 117.193c.3254-1.211.6696-2.414 1.0322-3.61h83.72v3.61z"/><path d="m31.9499 124.413c.2507-1.241.5209-2.474.8101-3.7h85.64v3.7z"/><path d="m30.7349 131.542c.1682-1.209.3546-2.413.559-3.61h87.1061v3.61z"/><path d="m29.9554 138.761c.0932-1.208.2046-2.411.3339-3.609h88.1107v3.609z"/><path d="m29.6171 145.981c.0202-1.208.0585-2.411.1146-3.61h88.6683v3.61z"/><path d="m29.6003 153.2v-3.609h88.7897c-.016 1.207-.05 2.411-.102 3.609z"/><path d="m29.6003 160.42v-3.61h88.4767c-.088 1.209-.195 2.412-.32 3.61z"/><path d="m29.6003 167.639v-3.609h87.7237c-.163 1.209-.345 2.412-.545 3.609z"/><path d="m29.6003 174.859v-3.61h86.5177c-.241 1.21-.5 2.414-.777 3.61z"/><path d="m29.6003 182.078v-3.609h84.8427c-.322 1.211-.662 2.414-1.021 3.609z"/><path d="m29.6003 189.298v-3.61h82.6757c-.407 1.212-.833 2.416-1.277 3.61z"/><path d="m29.6003 196.517v-3.609h79.9867c-.498 1.213-1.015 2.417-1.552 3.609z"/><path d="m29.6003 203.737v-3.61h76.7367c-.596 1.215-1.213 2.419-1.85 3.61z"/><path d="m29.6003 210.956v-3.609h72.8747c-.706 1.217-1.434 2.42-2.182 3.609z"/><path d="m29.6003 218.176v-3.61h68.3295c-.8307 1.22-1.6836 2.423-2.5582 3.61z"/><path d="m29.6003 225.396v-3.61h63.0026c-.976 1.223-1.9757 2.427-2.9984 3.61z"/><path d="m29.6003 232.615v-3.61h56.7525c-1.1526 1.228-2.331 2.432-3.5345 3.61z"/><path d="m29.6003 239.835v-3.61h49.3631c-1.3795 1.235-2.7882 2.439-4.2248 3.61z"/><path d="m29.6003 247.054v-3.61h40.4768c-1.6969 1.248-3.4282 2.452-5.1924 3.61z"/><path d="m29.6003 254.274v-3.61h29.4201c-2.2106 1.273-4.4663 2.478-6.7639 3.61z"/><path d="m29.6003 261.493v-3.61h14.5769c-3.3714 1.357-6.8196 2.563-10.3363 3.61z"/><path d="m118.4 37.7784h-13.728c3.471-1.3654 7.022-2.5717 10.644-3.6097h3.084z"/></g></svg>