<svg fill="none" height="296" viewBox="0 0 148 296" width="148" xmlns="http://www.w3.org/2000/svg"><g fill="#b692f6"><path d="m77.6097 125.105c-2.3432 7.209-3.6097 14.904-3.6097 22.895s1.2665 15.686 3.6097 22.895z"/><path d="m84.8293 186.562c-1.3118-2.144-2.5175-4.361-3.6098-6.642v-63.84c1.0923-2.281 2.2979-4.498 3.6098-6.642z"/><path d="m92.0488 196.432c-1.2601-1.455-2.4645-2.959-3.6098-4.509v-87.846c1.1453-1.55 2.3496-3.054 3.6098-4.5088z"/><path d="m99.2683 203.69c-1.2406-1.087-2.4445-2.214-3.6098-3.38v-104.6204c1.1653-1.1659 2.3692-2.2931 3.6098-3.3796z"/><path d="m106.488 209.268c-1.23-.835-2.434-1.706-3.61-2.612v-117.3122c1.176-.9058 2.38-1.7771 3.61-2.6123z"/><path d="m113.707 213.591c-1.223-.641-2.427-1.315-3.609-2.021v-127.1395c1.182-.7065 2.385-1.3809 3.609-2.022z"/><path d="m120.927 216.891c-1.22-.48-2.423-.991-3.61-1.532v-134.718c1.187-.5415 2.39-1.0525 3.61-1.5321z"/><path d="m128.146 219.306c-1.216-.337-2.419-.706-3.609-1.103v-140.4059c1.19-.3976 2.393-.7657 3.609-1.1036z"/><path d="m135.366 220.926c-1.214-.209-2.417-.447-3.61-.714v-144.4235c1.193-.2672 2.396-.5055 3.61-.7143z"/><path d="m142.585 221.805c-1.211-.088-2.415-.205-3.609-.35v-146.9103c1.194-.1453 2.398-.262 3.609-.3497z"/><path d="m148 221.978c-1.203.029-.602.029-1.805 0v-147.9565c1.2-.0287.605-.0287 1.805 0z"/><path clip-rule="evenodd" d="m148 0c-81.7382.00000715-148.00000715 66.2619-148 148 .00000715 81.738 66.2618 148 148 148zm0 36.9999c-61.3037 0-111.0001 49.6964-111.0001 111.0001.0001 61.304 49.6964 111 111.0001 111z" fill-rule="evenodd"/></g></svg>