<svg fill="none" height="148" viewBox="0 0 148 148" width="148" xmlns="http://www.w3.org/2000/svg"><g fill="#d6bbfb"><path d="m3.60976 51.1052c-2.34324 7.2093-3.60976 14.9041-3.60976 22.8948s1.26652 15.6855 3.60976 22.8948z"/><path d="m10.8293 112.562c-1.31184-2.144-2.51753-4.361-3.60979-6.642v-63.8403c1.09226-2.281 2.29795-4.4974 3.60979-6.6417z"/><path d="m18.0488 122.432c-1.2601-1.455-2.4645-2.959-3.6098-4.509v-87.8457c1.1453-1.5504 2.3497-3.0546 3.6098-4.5091z"/><path d="m25.2683 129.69c-1.2406-1.087-2.4445-2.214-3.6098-3.38v-104.6203c1.1653-1.166 2.3692-2.2932 3.6098-3.3796z"/><path d="m32.4878 135.268c-1.2302-.835-2.434-1.706-3.6098-2.612v-117.3122c1.1758-.9058 2.3796-1.7771 3.6098-2.6122z"/><path d="m39.7073 139.592c-1.2238-.642-2.4275-1.316-3.6097-2.022v-127.1395c1.1822-.70647 2.3859-1.38087 3.6097-2.02201z"/><path d="m46.9268 142.891c-1.2194-.48-2.423-.991-3.6097-1.532v-134.71797c1.1867-.54147 2.3903-1.05249 3.6097-1.53207z"/><path d="m54.1463 145.306c-1.2161-.337-2.4196-.706-3.6097-1.103v-140.40586c1.1901-.39757 2.3936-.76572 3.6097-1.1036z"/><path d="m61.3658 146.926c-1.2136-.209-2.4171-.447-3.6097-.714v-144.42352c1.1926-.26712 2.3961-.50545 3.6097-.71422z"/><path d="m68.5854 147.805c-1.2116-.088-2.4151-.204-3.6098-.35v-146.910264c1.1947-.145256 2.3982-.262041 3.6098-.349658z"/><path d="m75.8049 147.978c-.5999.015-1.2016.022-1.8049.022s-1.205-.007-1.8049-.022v-147.9564201c.5999-.01435938 1.2016-.0215799 1.8049-.0215799s1.205.00722052 1.8049.0215799z"/><path d="m83.0244 147.455c-1.1947.146-2.3982.262-3.6098.35v-147.609922c1.2116.087616 2.4151.204402 3.6098.349657z"/><path d="m90.2439 146.212c-1.1926.267-2.3961.505-3.6098.714v-145.85174c1.2137.20877 2.4172.4471 3.6098.71422z"/><path d="m97.4634 144.203c-1.1901.397-2.3936.766-3.6098 1.103v-142.61247c1.2162.33788 2.4197.70604 3.6098 1.10361z"/><path d="m104.683 141.359c-1.187.541-2.39 1.052-3.61 1.532v-137.78204c1.22.47958 2.423.9906 3.61 1.53207z"/><path d="m111.902 137.57c-1.182.706-2.386 1.38-3.609 2.022v-131.18352c1.223.64115 2.427 1.31555 3.609 2.02202z"/><path d="m119.122 132.656c-1.176.906-2.38 1.777-3.61 2.612v-122.5364c1.23.8351 2.434 1.7064 3.61 2.6122z"/><path d="m126.341 126.31c-1.165 1.166-2.369 2.294-3.609 3.38v-111.3799c1.24 1.0864 2.444 2.2136 3.609 3.3796z"/><path d="m133.561 117.923c-1.145 1.55-2.35 3.054-3.61 4.509v-96.8638c1.26 1.4545 2.465 2.9587 3.61 4.5091z"/><path d="m140.78 105.92c-1.092 2.281-2.297 4.498-3.609 6.642v-77.124c1.312 2.1443 2.517 4.3607 3.609 6.6417z"/><path d="m148 74c0 7.9907-1.267 15.6855-3.61 22.8948v-45.7896c2.343 7.2093 3.61 14.9041 3.61 22.8948z"/><path d="m111 74c0 20.4345-16.5655 37-37 37s-37-16.5655-37-37c0-20.4346 16.5655-37 37-37s37 16.5654 37 37z"/></g></svg>