<svg fill="none" height="148" viewBox="0 0 148 148" width="148" xmlns="http://www.w3.org/2000/svg"><g fill="#53389e"><path d="m148 0h-3.61v148h3.61z"/><path d="m140.78 0h-3.609v148h3.609z"/><path d="m133.561 0h-3.61v148h3.61z"/><path d="m126.341 0h-3.609v148h3.609z"/><path d="m119.122 0h-3.61v148h3.61z"/><path d="m111.902 0h-3.609v148h3.609z"/><path d="m104.683 0h-3.61v148h3.61z"/><path d="m97.4634 0h-3.6097v148h3.6097z"/><path d="m90.2439 0h-3.6098v148h3.6098z"/><path d="m83.0244 0h-3.6098v148h3.6098z"/><path d="m75.8049 0h-3.6098v148h3.6098z"/><path d="m68.5854 0h-3.6098v148h3.6098z"/><path d="m61.3659 0h-3.6098v148h3.6098z"/><path d="m54.1463 0h-3.6097v148h3.6097z"/><path d="m46.9268 0h-3.6097v148h3.6097z"/><path d="m39.7073 0h-3.6097v148h3.6097z"/><path d="m32.4878 0h-3.6098v148h3.6098z"/><path d="m25.2683 0h-3.6098v148h3.6098z"/><path d="m18.0488 0h-3.6098v148h3.6098z"/><path d="m10.8293 0h-3.60979v148h3.60979z"/><path d="m3.60976 0h-3.60976v148h3.60976z"/><path d="m112.85 37h-74v74h74z"/></g></svg>