<svg fill="none" height="148" viewBox="0 0 148 148" width="148" xmlns="http://www.w3.org/2000/svg"><g fill="#53389e"><path d="m148 74c0 40.869-33.131 74-74 74-40.8691 0-74-33.131-74-74z"/><path d="m.00015747 0h3.60975253v74h-3.60991z"/><path d="m7.21967 0h3.60973v74h-3.60973z"/><path d="m14.4392 0h3.6097v74h-3.6097z"/><path d="m21.6587 0h3.6097v74h-3.6097z"/><path d="m28.8782 0h3.6098v74h-3.6098z"/><path d="m36.0977 0h3.6098v74h-3.6098z"/><path d="m43.3172 0h3.6098v74h-3.6098z"/><path d="m50.5367 0h3.6098v74h-3.6098z"/><path d="m57.7562 0h3.6098v74h-3.6098z"/><path d="m64.9758 0h3.6097v74h-3.6097z"/><path d="m72.1953 0h3.6097v74h-3.6097z"/><path d="m79.4148 0h3.6097v74h-3.6097z"/><path d="m86.6343 0h3.6097v74h-3.6097z"/><path d="m93.8538 0h3.6098v74h-3.6098z"/><path d="m101.073 0h3.61v74h-3.61z"/><path d="m108.293 0h3.61v74h-3.61z"/><path d="m115.512 0h3.61v74h-3.61z"/><path d="m122.732 0h3.61v74h-3.61z"/><path d="m129.951 0h3.61v74h-3.61z"/><path d="m137.171 0h3.61v74h-3.61z"/><path d="m144.39 0h3.61v74h-3.61z"/></g></svg>