<svg fill="none" height="148" viewBox="0 0 148 148" width="148" xmlns="http://www.w3.org/2000/svg"><g fill="#b692f6"><path d="m74 148c0-7.99-1.2665-15.685-3.6098-22.895v22.895z"/><path d="m63.1707 109.438c1.3118 2.145 2.5175 4.361 3.6098 6.642v31.92h-3.6098z"/><path d="m55.9512 99.5685c1.2601 1.4545 2.4645 2.9585 3.6098 4.5095v43.922h-3.6098z"/><path d="m48.7317 92.3103c1.2406 1.0865 2.4445 2.2137 3.6097 3.3796v52.3101h-3.6097z"/><path d="m41.5122 86.7318c1.2302.8352 2.434 1.7064 3.6097 2.6122v58.656h-3.6097z"/><path d="m34.2927 82.4088c1.2238.6411 2.4274 1.3155 3.6097 2.0219v63.5693h-3.6097z"/><path d="m27.0732 79.1092c1.2194.4796 2.4229.9906 3.6097 1.5321v67.3587h-3.6097z"/><path d="m19.8536 76.6938c1.2162.3379 2.4197.706 3.6098 1.1036v70.2026h-3.6097z"/><path d="m12.6341 75.0745c1.2136.2088 2.4172.4471 3.6098.7142v72.2113h-3.6098z"/><path d="m5.41463 74.1953c1.21156.0877 2.41505.2044 3.60975.3497v73.455h-3.60975z"/><path d="m0 74.0218c1.19977-.0287.605096-.0287 1.80487 0v73.9782h-1.80486386z"/><path clip-rule="evenodd" d="m148 148c0-81.7381-66.2619-148-148-148v37c61.3036 0 111 49.6964 111 111z" fill-rule="evenodd"/></g></svg>